<svg width="100" height="60" viewBox="0 0 100 60" fill="none" xmlns="http://www.w3.org/2000/svg">
<path fill-rule="evenodd" clip-rule="evenodd" d="M0 25C0 11.1929 11.1929 0 25 0H40V30L50 16.6667L60 30V0H75C88.8071 0 100 11.1929 100 25C100 38.8071 88.8071 50 75 50H62.5L50 33.3333L30 60V10H25C18.4689 10 12.9127 14.174 10.8535 20H25V30H10V50H0V25ZM70 40H75C83.2843 40 90 33.2843 90 25C90 16.7157 83.2843 10 75 10H70V40Z" fill="url(#paint0_linear_157_7)"/>
<path fill-rule="evenodd" clip-rule="evenodd" d="M2 25C2 12.2975 12.2975 2 25 2H38V36L50 20L62 36V2H75C87.7026 2 98 12.2975 98 25C98 37.7025 87.7025 48 75 48H63.5L50 30L32 54V8H25C16.6348 8 9.6808 14.042 8.26387 22H23V28H8V48H2V25ZM68 42H75C84.3888 42 92 34.3888 92 25C92 15.6112 84.3888 8 75 8H68V42Z" fill="#080D16"/>
<defs>
<linearGradient id="paint0_linear_157_7" x1="50" y1="5" x2="50" y2="45" gradientUnits="userSpaceOnUse">
<stop stop-color="#5686F5"/>
<stop offset="1" stop-color="#E0274C"/>
</linearGradient>
</defs>
</svg>
