<svg width="120" height="100" viewBox="0 0 120 100" fill="none" xmlns="http://www.w3.org/2000/svg">
<path fill-rule="evenodd" clip-rule="evenodd" d="M0 35C0 15.67 15.67 0 35 0H85C104.33 0 120 15.67 120 35C120 54.33 104.33 70 85 70H67.5L60 60L30 100V70H0V35Z" fill="#F3F5FC"/>
<path fill-rule="evenodd" clip-rule="evenodd" d="M10 35C10 21.1929 21.1929 10 35 10H50V40L60 26.6667L70 40V10H85C98.8071 10 110 21.1929 110 35C110 48.8071 98.8071 60 85 60H72.5L60 43.3333L40 70V20H35C28.4689 20 22.9127 24.174 20.8535 30H35V40H20V60H10V35ZM80 50H85C93.2843 50 100 43.2843 100 35C100 26.7157 93.2843 20 85 20H80V50Z" fill="#080D16"/>
</svg>
